<?xml version="1.0" encoding="utf-8"?>
<svg xmlns="http://www.w3.org/2000/svg" height="16" width="16" viewBox="0 0 16 16">
  <g>
    <path id="path1" transform="rotate(0,8,8) translate(1.99999952316284,0) scale(0.5,0.5)  " fill="#3B4767" d="M5.9999971,19.999971L12.999997,19.999971C13.551999,19.999971 13.999997,20.44803 13.999997,20.999971 13.999997,21.551973 13.551999,21.999971 12.999997,21.999971L5.9999971,21.999971C5.4480028,21.999971 4.9999971,21.551973 4.9999971,20.999971 4.9999971,20.44803 5.4480028,19.999971 5.9999971,19.999971z M6,16L15,16C15.552,16 16,16.448 16,17 16,17.552 15.552,18 15,18L6,18C5.4480001,18 5.0000001,17.552 5,17 5.0000001,16.448 5.4480001,16 6,16z M6,12L18,12C18.552,12 19,12.448 19,13 19,13.552 18.552,14 18,14L6,14C5.4480001,14 5.0000001,13.552 5,13 5.0000001,12.448 5.4480001,12 6,12z M17,3.4139996L17,7.031991 20.617991,7.031991z M2,2L2,30 22.000001,30 22.000001,9.0319891 15,9.0319891 15,2z M2,0L16.414001,0 24.000001,7.5860004 24.000001,30C24.000001,31.103001,23.103,32,22.000001,32L2,32C0.89699984,32,0,31.103001,0,30L0,2C0,0.89699936,0.89699984,0,2,0z" />
  </g>
</svg>

