<?xml version="1.0" encoding="utf-8"?>
<svg xmlns="http://www.w3.org/2000/svg" height="16" width="16" viewBox="0 0 16 16">
  <g>
    <path id="path1" transform="rotate(0,8,8) translate(0,0.199999809265137) scale(0.5,0.5)  " fill="#3B4767" d="M1.1000061,22.799991L1.5,22.799991C5.4000092,22.799991,9.3000031,25.299991,10.699997,26.399997L10.300003,31.2 0,26.899997z M22,21.799991C27.900009,26.299991,31.100006,26.7,31.400009,26.7L32,30.599994 22.199997,27.399997 22.199997,27.099994z M20.199997,21.599994L20.400009,27.2 20.400009,27.599994 12,31.099994 12.400009,26.299991z M23.512865,20.666305L23.699997,20.799991 23.5,20.7C23.5,20.7,23.503515,20.690332,23.510691,20.67184z M16.300003,18.199998L16.300003,21.799991 12.600006,24.099994 13,19.500003z M30,17.500001L31.100006,24.599994C29.800003,24.500003 27.300003,23.099994 25.199997,21.799991 26.600006,17.699998 29.900009,17.500001 30,17.500001z M8.5,11.399995L11.900009,12.599992 11.900009,12.799989 11.5,17.099992C6.6000061,14.79999,8.3000031,11.699998,8.5,11.399995z M4.4000092,10.000001L6.6000061,10.799989C4.5,15.199999,9.3000031,18.299989,11.199997,19.399997L10.800003,24.399997C3,19.599994,1.5,20.899997,1.5,20.899997L1.3000031,21.500003z M21.5,9.899995L23.199997,10.500001 24.199997,14.199998 24.699997,16.199998 25.900009,14.500001 27.699997,12.000001 29.199997,12.500001 29.699997,15.699999C25.387505,16.26249,23.71172,20.164842,23.519093,20.650439L23.512865,20.666305 23.438084,20.612882C22.829689,20.178117,22.250004,19.762492,21.900009,19.500003z M19.699997,9.899995L20.100006,19.399997 18.100006,20.599994 18.100006,16.599992C17.900009,15.699999,16.900009,15.899996,16.900009,15.899996L13.199997,17.299989 13.600006,13.000001 13.600006,12.599992z M26.800003,2.1999969C25.800003,2.1999971 24.900009,2.899994 24.699997,4.0000002 24.5,5.1999976 25.300003,6.2999884 26.400009,6.5999915 27.699997,6.6999976 28.800003,6.0000006 29,4.7999884 29.199997,3.5999912 28.400009,2.5000002 27.300003,2.1999969z M26.900009,3.7766767E-10C27.100006,-1.5256751E-07 27.400009,-1.5256751E-07 27.600006,0.099990842 30,0.49999991 31.5,2.6999971 31.100006,5.0000006 30.900009,5.7999884 30.600006,6.5000006 30.100006,7.0999915L27.699997,10.399995 25.199997,13.799989 24,9.6999981 22.900009,5.6999976C22.600006,5.0000006 22.5,4.1999971 22.699997,3.3999938 23.100006,1.3999939 24.900009,-1.5256751E-07 26.900009,3.7766767E-10z" />
  </g>
</svg>

