<?xml version="1.0" encoding="utf-8"?>
<svg xmlns="http://www.w3.org/2000/svg" height="16" width="16" viewBox="0 0 16 16">
  <g>
    <path id="path1" transform="rotate(0,8,8) translate(0.745744228363037,0) scale(0.5,0.5)  " fill="#3B4767" d="M23.075579,19.198391C23.123038,19.196396 23.170204,19.196886 23.217079,19.200012 24.717068,19.299988 28.717039,22.299988 29.017023,31.799988L0.017236804,32C0.017236806,32 -0.78274511,19.900024 8.5171749,19.299988 12.217159,18.700012 15.817108,22.400024 17.91713,22 19.854614,21.709387 21.604397,19.260231 23.075579,19.198391z M16.617151,0C20.817072,0 24.117096,3.7999878 24.117096,8.5999756 24.117096,13.299988 20.717097,17.200012 16.617151,17.200012 12.417171,17.200012 9.1172068,13.400024 9.1172068,8.5999756 9.0171711,3.7999878 12.417171,0 16.617151,0z" />
  </g>
</svg>

