<?xml version="1.0" encoding="utf-8"?>
<svg xmlns="http://www.w3.org/2000/svg" height="16" width="16" viewBox="0 0 16 16">
  <g>
    <path id="path1" transform="rotate(0,8,8) translate(0.999980390016933,0) scale(0.500001400713076,0.500001400713076)  " fill="#3B4767" d="M8.0170792,5.4661164C8.3718814,5.4721987 8.7116774,5.6682266 8.8869933,6.0050925 9.1419982,6.494103 8.9519957,7.0981027 8.4620055,7.3540825 4.4769896,9.4331698 1.9999999,13.512121 1.9999996,18.000007 1.9999999,24.617027 7.3829955,29.999926 14,29.999926 20.617004,29.999926 26,24.617027 26,18.000007 26,13.514074 23.52301,9.4360995 19.536987,7.3561577 19.048004,7.1011544 18.858002,6.4971547 19.113006,6.0071677 19.368988,5.5181574 19.970001,5.3261421 20.463013,5.5830985 25.110992,8.0081308 28,12.766033 28,18.000007 28,25.720047 21.720001,31.99991 14,31.99991 6.2799987,31.99991 -1.1931883E-07,25.720047 0,18.000007 -1.1931883E-07,12.76408 2.8890074,8.005079 7.5379943,5.5801688 7.6914309,5.4998317 7.8558053,5.4633516 8.0170792,5.4661164z M14,0C14.553,0,15,0.44700003,15,1L15,14C15,14.552999 14.553,15 14,15 13.446999,15 13,14.552999 13,14L13,1C13,0.44700003,13.446999,0,14,0z" />
  </g>
</svg>

