<?xml version="1.0" encoding="utf-8"?>
<svg xmlns="http://www.w3.org/2000/svg" height="16" width="16" viewBox="0 0 16 16">
  <g>
    <path id="path1" transform="rotate(0,8,8) translate(0,1.59999990463257) scale(0.5,0.5)  " fill="#3B4767" d="M13.594002,4.2219891L13.594002,8.255989C30.661003,8.255989 32,18.345018 32,20.360004 28.319,12.293011 13.594002,16.32399 13.594002,16.32399L13.594002,20.360004 5.0610008,12.798993z M0,0L21.333,0 21.333,2.1329974 21.333,4.2670025 19.201,4.2670025 19.201,2.1329974 2.1330032,2.1329974 2.1330032,23.467003 19.201,23.467003 19.201,21.332998 21.333,21.332998 21.333,23.467003 21.333,25.6 19.201,25.6 0,25.6 0,23.467003 0,2.1329974z" />
  </g>
</svg>

