<?xml version="1.0" encoding="utf-8"?>
<svg xmlns="http://www.w3.org/2000/svg" height="16" width="16" viewBox="0 0 16 16">
  <g>
    <path id="path1" transform="rotate(0,8,8) translate(0,0.27625036239624) scale(0.5,0.5)  " fill="#3B4767" d="M26.625,22.988C25.346008,22.978997 24.303009,24.01101 24.295013,25.287011 24.286011,26.568004 25.316986,27.608012 26.592987,27.617 27.872986,27.626002 28.916016,26.599009 28.924011,25.318002 28.932007,24.042001 27.903015,22.997003 26.625,22.988z M26.644989,19.715003C27.128998,19.715003,27.597015,19.791007,28.042999,19.905997L28.22699,21.129006C28.679016,21.307,29.095001,21.547006,29.462006,21.849999L30.618988,21.41401C31.269989,22.085,31.75,22.917001,32,23.846002L31.031006,24.620004C31.066986,24.851006 31.089996,25.090997 31.088013,25.332009 31.084991,25.575997 31.059998,25.812005 31.020996,26.043008L31.980988,26.830012C31.718994,27.755,31.227997,28.582011,30.569,29.245006L29.417999,28.791011C29.046997,29.089,28.627014,29.325007,28.174011,29.498012L27.972992,30.717006C27.524994,30.833003 27.057007,30.894999 26.574005,30.894999 26.088989,30.89001 25.622009,30.819011 25.174011,30.699L24.992004,29.476008C24.541016,29.303004,24.122986,29.058009,23.756012,28.756007L22.598999,29.192012C21.949005,28.525004,21.467987,27.689006,21.21701,26.759013L22.187012,25.989999C22.152008,25.754006 22.128998,25.517999 22.130005,25.274011 22.132996,25.034005 22.15799,24.793008 22.196991,24.562005L21.237,23.780007C21.497986,22.849999,21.98999,22.027001,22.64801,21.360009L23.800995,21.814004C24.17099,21.516,24.59201,21.280007,25.045013,21.111001L25.243988,19.888007C25.692993,19.776999,26.161011,19.709998,26.644989,19.715003z M12.773987,17.834006L14.325012,19.386008 13.119995,20.590995 14.363007,22.032006 12.717987,26.964 11.022003,22.088998 12.410004,20.573005 11.222015,19.386008z M19.31601,17.666999C20.506989,17.890998,21.608002,18.371009,22.55899,19.049003L22.571991,19.058997 22.481995,19.116996C20.485992,20.465995 19.171997,22.749001 19.171997,25.332009 19.171997,26.624003 19.501007,27.840999 20.07901,28.90301L20.106995,28.953013 0,28.953013 0,25.746011C0,21.762002,2.8349915,18.439002,6.5979919,17.685004L12.667999,27.199z M10.756989,3.8099989C9.946991,3.808 8.9249878,4.0169997 8.8049927,5.0560016 8.8049927,5.0560016 8.8049927,7.0769987 8.2659912,7.3459958L8.1319885,9.2319984 7.5920105,8.692996 7.7940063,11.252003 8.8049927,11.319996C8.8049927,11.319996 9.0740051,16.504004 13.990997,15.495001 13.990997,15.495001 16.347015,14.754003 16.885986,11.319996L17.694,11.252003 17.895996,8.9619932 17.559998,9.0300025C17.559998,9.0300025,17.356995,7.0769987,17.154999,6.2689995L17.019989,4.3159956C17.019989,4.3159956 15.876007,3.3730025 14.191986,4.1810011 14.191986,4.1810011 12.239014,4.1129927 11.768005,3.9109969 11.768005,3.9109969 11.312012,3.8109908 10.756989,3.8099989z M13.062012,0C15.358002,5.7894795E-08 16.953003,1.2169958 16.953003,1.2169957 19.916016,3.5749983 18.299988,7.614993 18.299988,7.614993 18.972992,8.019 18.907013,8.3560056 18.907013,8.3560056 18.907013,12.733998 17.694,12.396993 17.694,12.396993 17.019989,15.224997 14.394989,16.504004 14.394989,16.504004 9.276001,17.784003 7.9970093,12.463994 7.9970093,12.463994 6.9190063,12.328999 6.7850037,9.8380012 6.7850037,9.8380012 6.446991,8.1539945 7.3909912,7.4810056 7.3909912,7.4810056 5.3699951,2.7669994 9.0069885,1.3529974 9.0069885,1.3529972 10.464996,0.33399981 11.859009,5.7894795E-08 13.062012,0z" />
  </g>
</svg>

