<?xml version="1.0" encoding="utf-8"?>
<svg xmlns="http://www.w3.org/2000/svg" height="16" width="16" viewBox="0 0 16 16">
  <g>
    <path id="path1" transform="rotate(0,8,8) translate(0.000499709734445908,0) scale(0.499984384070799,0.499984384070799)  " fill="#3B4767" d="M5.3330038,0.001953186L8.6660087,0.001953186C9.4030083,0.0019531264,9.9990156,0.52404821,9.9990156,1.168946L9.9990156,4.0019561 12.832022,4.0019561C13.478018,4.0019561,13.999014,4.5980259,13.999014,5.3349649L13.999014,8.6679751C13.999014,9.403937,13.477041,10.000984,12.832022,10.000984L9.9990156,10.000984 9.9990156,12.833994C9.9990156,13.478037,9.4030083,14.000987,8.6660087,14.000987L7.9990175,14.000987 7.9990175,14.021983 5.9450028,14.021983 5.9450028,14.000987 5.3330038,14.000987C4.5960048,14.000987,3.9999969,13.478037,3.9999969,12.833994L3.9999969,10.000984 1.1670521,10.000984C0.52099553,10.000984,-2.1023789E-07,9.403937,0,8.6679751L0,5.3349649C-2.1023789E-07,4.5980259,0.52203312,4.0019561,1.1670521,4.0019561L3.9999969,4.0019561 3.9999969,1.168946C3.9999969,0.52294958,4.5960048,0.0019531264,5.3330038,0.001953186z M29.33201,0C30.803993,0,31.999,1.1939706,31.999,2.666994L31.999,29.334006C31.999,30.806052,30.803993,32.001,29.33201,32.001L8.611017,32.001C7.1370185,32.001,5.9440263,30.806052,5.9440263,29.334006L5.9440263,16.000989 7.9990175,16.000989 7.9990175,30.000998 11.999015,30.000998 11.999015,12.000985 17.944017,12.000985 17.944017,30.000998 19.999008,30.000998 19.999008,6.0570112 25.944011,6.0570112 25.944011,30.000998 29.999002,30.000998 29.999002,2.0009781 11.999015,2.0009781 11.999015,0.000976593 29.33201,0.000976593z" />
  </g>
</svg>

